<?xml version="1.0" encoding="utf-8"?>
<!-- Generator: Adobe Illustrator 26.0.1, SVG Export Plug-In . SVG Version: 6.00 Build 0)  -->
<svg version="1.1" id="Layer_1" xmlns="http://www.w3.org/2000/svg" xmlns:xlink="http://www.w3.org/1999/xlink" x="0px" y="0px"
	 viewBox="0 0 271.5 134.5" style="enable-background:new 0 0 271.5 134.5;" xml:space="preserve">
<style type="text/css">
	.st0{fill:#FEC400;}
</style>
<g id="New_Symbol_2">
	<g>
		<g>
			<g>
				<path class="st0" d="M257.3,64.7L196.9,4.4c-2.9-2.9-7.5-2.9-10.4,0l-32.2,32.2L122.1,4.5c-2.9-2.9-7.5-2.9-10.4,0L2.5,113.7
					l18.7,18.7l93.1-93.1c1.4-1.4,3.8-1.4,5.2,0l16,16l-58.3,58.3L96,132.4l58.3-58.3l46.8,46.8c15.5,15.5,40.7,15.5,56.2,0v0
					C272.8,105.4,272.8,80.3,257.3,64.7z M238.5,102.2L238.5,102.2c-5.2,5.2-13.6,5.2-18.7,0L173,55.4l16.1-16.1
					c1.4-1.4,3.8-1.4,5.2,0l44.2,44.2C243.7,88.6,243.7,97,238.5,102.2z"/>
			</g>
		</g>
	</g>
</g>
</svg>
