<?xml version="1.0" encoding="utf-8"?>
<!-- Generator: Adobe Illustrator 26.0.2, SVG Export Plug-In . SVG Version: 6.00 Build 0)  -->
<svg version="1.1" id="Layer_1" xmlns="http://www.w3.org/2000/svg" xmlns:xlink="http://www.w3.org/1999/xlink" x="0px" y="0px"
	 viewBox="0 0 865.9 236" style="enable-background:new 0 0 865.9 236;" xml:space="preserve">
<style type="text/css">
	.st0{fill:#FFED02;}
	.st1{fill:#FFFFFF;}
	.st2{fill:#FFFFFF;stroke:#303030;stroke-miterlimit:10;}
	.st3{fill:#FEC400;}
</style>
<symbol  id="New_Symbol_2_00000150822189257933737150000004167114006383449998_" viewBox="-362.1 -177.1 724.3 354.3">
	<path class="st0" d="M330.5,7.2l-164,164c-7.8,7.8-20.5,7.8-28.3,0L50.5,83.6L-36.9,171c-7.8,7.8-20.5,7.8-28.3,0l-297-297
		l50.9-50.9L-58.1,76.2c3.9,3.9,10.2,3.9,14.1,0l43.5-43.5l-158.4-158.4l50.9-50.9L50.5-18.2l127.3-127.3
		c42.2-42.2,110.6-42.2,152.7,0v0C372.7-103.3,372.7-34.9,330.5,7.2z M279.6-94.6L279.6-94.6c-14.1-14.1-36.9-14.1-50.9,0
		L101.4,32.7l43.8,43.8c3.9,3.9,10.2,3.9,14.1,0L279.6-43.7C293.6-57.7,293.6-80.5,279.6-94.6z"/>
</symbol>
<g id="New_Symbol_3">
	<g>
		<polygon class="st1" points="360.6,101.8 360.6,65.1 340.2,78.5 319.9,65.1 319.9,101.8 301.2,101.8 301.2,40.5 315.7,40.5 
			340.2,57.8 364.8,40.5 379.3,40.5 379.3,101.8 		"/>
		<path class="st1" d="M418.3,101.6c-10.5,0-18.9-2.6-24.8-7.8c-6.1-5.3-9.2-13.1-9.2-23.2c0-10.1,3.1-17.9,9.2-23.2
			c5.9-5.2,14.5-7.8,25.4-7.8h13.8c10.9,0,19.4,2.6,25.4,7.8c6.1,5.3,9.2,13.1,9.2,23.2c0,10.1-3.1,18-9.2,23.2
			c-5.9,5.2-14.3,7.8-25,7.8H418.3z M421.7,56.1c-6,0-10.6,1.2-13.8,3.7c-3.2,2.4-4.7,6-4.7,10.7c0,4.8,1.5,8.3,4.7,10.8
			c3.2,2.4,7.7,3.7,13.5,3.7h8.6c5.8,0,10.4-1.2,13.6-3.7c3.2-2.4,4.7-6,4.7-10.8c0-4.8-1.5-8.3-4.7-10.7c-3.2-2.4-7.8-3.7-13.8-3.7
			H421.7z"/>
		<path class="st1" d="M583.2,101.6c-10.5,0-18.9-2.6-24.8-7.8c-6.1-5.3-9.2-13.1-9.2-23.2c0-10.1,3.1-17.9,9.2-23.2
			c5.9-5.2,14.5-7.8,25.3-7.8h13.8c10.9,0,19.4,2.6,25.4,7.8c6.1,5.3,9.2,13.1,9.2,23.2c0,10.1-3.1,18-9.2,23.2
			c-5.9,5.2-14.3,7.8-25,7.8H583.2z M586.6,56.1c-6,0-10.6,1.2-13.8,3.7c-3.2,2.4-4.7,6-4.7,10.7c0,4.8,1.5,8.3,4.7,10.8
			c3.2,2.4,7.7,3.7,13.5,3.7h8.6c5.8,0,10.4-1.2,13.6-3.7c3.2-2.4,4.7-6,4.7-10.8c0-4.8-1.5-8.3-4.7-10.7c-3.2-2.4-7.8-3.7-13.8-3.7
			H586.6z"/>
		<polygon class="st1" points="496.5,101.8 496.5,57 470.4,57 470.4,40.5 544.4,40.5 544.4,57 515.2,57 515.2,101.8 		"/>
	</g>
	<g>
		<path class="st2" d="M623.6,143.9"/>
		<path class="st2" d="M623.6,143.9"/>
		<path class="st2" d="M623.6,143.9"/>
		<path class="st2" d="M623.6,143.9"/>
		<path class="st2" d="M623.6,143.9"/>
		<path class="st2" d="M623.6,143.9"/>
		<path class="st2" d="M623.6,143.9"/>
		<path class="st2" d="M623.6,143.9"/>
		<path class="st2" d="M623.6,143.9"/>
		<path class="st2" d="M623.6,143.9"/>
		<path class="st2" d="M623.6,143.9"/>
		<path class="st2" d="M623.6,143.9"/>
		<path class="st2" d="M623.6,143.9"/>
		<path class="st2" d="M623.6,143.9"/>
		<path class="st2" d="M623.6,143.9"/>
		<path class="st2" d="M623.6,143.9"/>
		<path class="st1" d="M300.5,173.4v-62.6h50.3c6.6,0,11.9,1.8,15.7,5.2c3.9,3.6,5.9,8.8,5.9,15.7c0,6.9-2,12.2-5.9,15.7
			c-3.8,3.5-9.1,5.2-15.7,5.2h-31.3v20.7H300.5z M349.3,138.4c2,0,3.6-0.5,4.6-1.5c1-1,1.5-2.7,1.5-5.1c0-2.5-0.5-4.2-1.5-5.1
			c-1-1-2.6-1.4-4.6-1.4h-32v13.1L349.3,138.4z"/>
		<path class="st1" d="M568.9,173.8c-6.2,0-11.1-0.8-14.8-2.5c-4-1.8-6.9-4.6-8.6-8.4c-1.6-3.5-2.4-7.8-2.4-12.8v-39.3h18.9v39.3
			c0,2.8,0.6,4.8,1.6,5.6c0.7,0.6,2.7,1.5,7.5,1.5h15.2c4.9,0,6.8-0.9,7.5-1.5c1-0.8,1.6-2.8,1.6-5.6v-39.3h18.9v39.3
			c0,5.1-0.8,9.4-2.4,12.8c-1.7,3.7-4.7,6.5-8.6,8.4c-3.8,1.7-8.6,2.5-14.8,2.5H568.9z"/>
		<polygon class="st1" points="620.1,173.4 620.1,110.8 639.1,110.8 639.1,156.8 679.4,156.8 671.9,173.4 		"/>
		<path class="st1" d="M812.5,173.4l-12-20.7h-20.9v20.7h-18.9v-62.6h50.3c6.6,0,11.9,1.8,15.7,5.2c3.9,3.6,5.9,8.8,5.9,15.7
			c0,5.8-1.4,10.5-4.3,14c-1.7,2-3.8,3.7-6.3,4.8l-1.3,0.6l13.7,22.2H812.5z M811.5,137.7c1.8,0,3.4-0.7,4.7-1.9
			c1.2-1.2,1.9-2.9,1.9-4.6c0-3.6-3-6.6-6.6-6.6h-32.2v13.1L811.5,137.7z"/>
		<path class="st1" d="M411.7,173.2c-10.8,0-19.3-2.7-25.4-8c-6.2-5.4-9.3-13.4-9.3-23.7c0-10.3,3.1-18.3,9.3-23.7
			c6.1-5.3,14.8-8,25.9-8h14.1c11.1,0,19.8,2.7,25.9,8c6.2,5.4,9.3,13.4,9.3,23.7c0,10.3-3.1,18.3-9.3,23.7c-6.1,5.3-14.7,8-25.5,8
			H411.7z M415.1,126.5c-6.2,0-11,1.3-14.2,3.8c-3.3,2.5-4.9,6.2-4.9,11.1c0,5,1.6,8.6,4.9,11.1c3.3,2.5,8,3.8,13.9,3.8h8.9
			c6,0,10.7-1.3,14-3.8c3.3-2.5,4.9-6.2,4.9-11.1c0-4.9-1.6-8.6-4.9-11.1c-3.3-2.5-8.1-3.8-14.2-3.8H415.1z"/>
		<path class="st1" d="M735.9,173.4l-5.3-11.9h-27.9l-5.3,11.9h-20.6l28.2-62.6h23.5l28.2,62.6H735.9z M726.6,147.2l-9.9-22.1
			l-9.9,22.1H726.6z"/>
		<path class="st1" d="M466.5,173.4v-62.6h50.3c6.6,0,11.9,1.8,15.7,5.2c3.9,3.6,5.9,8.8,5.9,15.7c0,6.9-2,12.2-5.9,15.7
			c-3.8,3.5-9.1,5.2-15.7,5.2h-31.3v20.7H466.5z M515.4,138.4c1.8,0,3.4-0.7,4.7-1.9c1.2-1.2,1.9-2.9,1.9-4.7c0-3.6-2.9-6.6-6.6-6.6
			h-32.2v13.1L515.4,138.4z"/>
	</g>
	<g id="New_Symbol_2">
		<g>
			<g>
				<g>
					<path class="st3" d="M271,104.5l-60.3-60.3c-2.9-2.9-7.5-2.9-10.4,0L168,76.4l-32.1-32.1c-2.9-2.9-7.5-2.9-10.4,0L16.3,153.5
						L35,172.2l93.1-93.1c1.4-1.4,3.8-1.4,5.2,0l16,16L91,153.4l18.7,18.7l58.3-58.3l46.8,46.8c15.5,15.5,40.7,15.5,56.2,0v0
						C286.5,145.2,286.5,120,271,104.5z M252.3,141.9L252.3,141.9c-5.2,5.2-13.6,5.2-18.7,0l-46.8-46.8L202.9,79
						c1.4-1.4,3.8-1.4,5.2,0l44.2,44.2C257.4,128.4,257.4,136.8,252.3,141.9z"/>
				</g>
			</g>
		</g>
	</g>
</g>
</svg>
